<svg xmlns="http://www.w3.org/2000/svg" width="16" height="16" viewBox="0 0 24 24">
	<path fill="currentColor" d="M21.95 4.903a1 1 0 0 0-.06-.166a1.2 1.2 0 0 0-.31-.425a1.2 1.2 0 0 0-.29-.197l-4.118-1.994a1.27 1.27 0 0 0-.75-.103a1.26 1.26 0 0 0-.672.347L9.106 9.75L5.228 6.553l-.337-.281a.8.8 0 0 0-.413-.19q-.033-.006-.066-.007q-.029-.004-.059-.003q-.046 0-.09.003a.3.3 0 0 0-.079.013a.7.7 0 0 0-.156.046l-1.515.629a.87.87 0 0 0-.372.306a.85.85 0 0 0-.141.463v8.936c0 .163.05.325.14.463c.091.134.222.24.373.306l1.515.638a.85.85 0 0 0 .45.056a.85.85 0 0 0 .413-.19l.337-.294l3.878-3.198l6.644 7.386q.034.033.072.066q.004.005.01.006a1.25 1.25 0 0 0 1.34.172l4.119-1.994a1 1 0 0 0 .153-.088c.097-.065.187-.147.262-.231q.057-.07.103-.144c.125-.2.191-.431.191-.669V5.247q0-.175-.05-.344M4.5 14.874V9.126l2.584 2.876zm7.334-2.873L17 7.742v8.518z" />
</svg>