<svg xmlns="http://www.w3.org/2000/svg" width="24" height="24" viewBox="0 0 24 24"><path fill="currentColor" d="M2.003 12.126C2.07 17.59 6.521 22 12.001 22c5.523 0 10-4.478 10-10c0-5.508-4.454-9.976-9.956-10h-.088c-5.46.024-9.886 4.424-9.954 9.873a3 3 0 0 0 0 .253M8.98 8.977A20 20 0 0 1 12 8.75c1.069 0 2.087.081 3.024.228c.147.937.228 1.954.228 3.022s-.081 2.085-.227 3.022c-.938.146-1.956.227-3.024.227c-1.067 0-2.084-.081-3.02-.227A20 20 0 0 1 8.751 12c0-1.068.08-2.086.227-3.023m-1.56.321c-.11.861-.167 1.768-.167 2.702s.058 1.84.167 2.701a11.5 11.5 0 0 1-1.662-.562c-.781-.337-1.365-.72-1.744-1.107c-.345-.353-.49-.676-.51-.96v-.145c.02-.284.165-.607.51-.96c.379-.386.963-.77 1.744-1.107a11.6 11.6 0 0 1 1.662-.562M9.3 7.418c.16-.611.349-1.168.562-1.661c.337-.781.72-1.365 1.107-1.744c.373-.365.712-.505 1.007-.513h.05c.295.008.635.148 1.008.513c.386.379.77.963 1.107 1.744c.213.493.402 1.05.561 1.66A22 22 0 0 0 12 7.25c-.933 0-1.84.058-2.7.167m7.284 1.881a11.6 11.6 0 0 1 1.658.561c.781.338 1.366.72 1.744 1.107c.375.384.513.732.513 1.033s-.138.648-.513 1.032c-.378.387-.963.77-1.744 1.107a11.5 11.5 0 0 1-1.658.561c.109-.86.166-1.767.166-2.7s-.057-1.84-.166-2.7m-1.882 7.283c-.159.61-.348 1.167-.561 1.66c-.338.781-.72 1.366-1.107 1.744c-.384.375-.732.513-1.033.513s-.649-.138-1.032-.513c-.387-.378-.77-.963-1.107-1.744a11.6 11.6 0 0 1-.562-1.66c.86.11 1.767.167 2.7.167s1.84-.058 2.702-.167m-7.009-.274c.203.932.47 1.785.792 2.53c.178.41.375.795.592 1.145a8.53 8.53 0 0 1-5.057-5.056q.525.323 1.142.589c.744.322 1.598.59 2.531.792m8.616 0c.932-.203 1.785-.47 2.528-.792a9 9 0 0 0 1.147-.592a8.53 8.53 0 0 1-5.058 5.06c.217-.35.414-.736.592-1.147c.321-.744.589-1.597.791-2.53m3.675-7.233a9 9 0 0 0-1.147-.592a14 14 0 0 0-2.527-.791a14 14 0 0 0-.792-2.53a9 9 0 0 0-.591-1.145a8.53 8.53 0 0 1 5.057 5.058M7.694 7.691a14 14 0 0 0-2.532.792q-.617.266-1.142.59a8.53 8.53 0 0 1 5.056-5.056q-.325.527-.591 1.145c-.322.744-.59 1.597-.792 2.529"/></svg>
