<svg xmlns="http://www.w3.org/2000/svg" width="24" height="24" viewBox="0 0 24 24"><path fill="currentColor" d="M18.323 9.007c-.226-.033-.42-.13-.646-.194c.033-.129.033-.258.097-.452c.452-2.322.13-4.16-.903-4.806c-1.032-.58-2.71.032-4.387 1.484c-.13.129-.355.258-.484.451c-.097-.096-.226-.193-.323-.322c-1.774-1.58-3.516-2.226-4.612-1.613c-1.033.58-1.355 2.355-.904 4.516c.033.226.097.452.13.645c-.226.033-.485.13-.71.226C3.484 9.684 2 10.878 2 12.007c0 1.225 1.58 2.451 3.742 3.16c.193.033.355.13.548.13c-.032.226-.129.451-.129.71c-.42 2.129-.096 3.838.936 4.419c1.032.645 2.838 0 4.516-1.548c.129-.13.258-.226.42-.355a4 4 0 0 0 .548.451c1.613 1.452 3.29 2.033 4.355 1.452c1.032-.645 1.387-2.452.935-4.71c-.032-.129-.032-.354-.13-.548c.13-.032.227-.032.356-.13C20.355 14.362 22 13.137 22 11.91c-.032-1-1.58-2.161-3.677-2.903m-5.29-3.29c1.45-1.259 2.806-1.71 3.45-1.388c.646.355.904 1.903.485 3.936c-.032.129-.032.225-.097.419c-.871-.194-1.71-.355-2.613-.42c-.484-.709-1.032-1.45-1.613-2.032a1.8 1.8 0 0 1 .387-.516M8.547 14.07c.194.355.42.678.646 1a10.6 10.6 0 0 1-1.807-.258a8 8 0 0 1 .645-1.71c.13.29.355.678.516.968m-1.16-4.645a22 22 0 0 1 1.773-.323c-.226.323-.42.646-.58 1c-.162.355-.355.646-.549 1.033c-.29-.613-.451-1.162-.645-1.71m1.031 2.677c.226-.548.549-1.032.871-1.58c.323-.549.645-1.033.936-1.549c.58-.032 1.161-.032 1.774-.032c.58 0 1.226.032 1.774.032c.355.484.645 1 .936 1.484c.322.484.58 1.033.87 1.58c-.225.55-.548 1.033-.87 1.582c-.323.548-.646 1.032-.936 1.548c-.58.032-1.161.032-1.806.032s-1.226-.032-1.774-.032c-.355-.484-.646-1-.936-1.548c-.29-.549-.548-.968-.839-1.517m7.033 1.968c.193-.355.354-.677.548-1.032c.226.548.452 1.129.645 1.71c-.58.129-1.226.225-1.87.322c.257-.322.483-.677.677-1m.58-2.968c-.193-.354-.355-.677-.548-1.032s-.42-.645-.58-.935a22 22 0 0 1 1.773.322c-.193.549-.419 1.097-.645 1.645M12 6.75c.42.451.774.903 1.129 1.387a28 28 0 0 0-2.322 0c.419-.516.838-.968 1.193-1.387M7.484 4.36c.645-.354 2.129.13 3.613 1.549c.097.097.193.193.322.258c-.58.645-1.129 1.355-1.677 2.032a23 23 0 0 0-2.613.42c-.032-.194-.097-.42-.129-.581c-.355-1.903-.129-3.323.484-3.678M6.58 14.62c-.13-.033-.323-.097-.484-.13a7.2 7.2 0 0 1-2.484-1.225c-.452-.323-.678-.71-.774-1.162c0-.71 1.258-1.612 3.032-2.258c.226-.096.452-.129.677-.225c.258.87.581 1.677.936 2.483c-.323.807-.678 1.613-.903 2.517m4.484 3.774a7.1 7.1 0 0 1-2.226 1.355a1.54 1.54 0 0 1-1.355.032c-.645-.355-.871-1.71-.549-3.58c.033-.227.097-.452.13-.646c.87.194 1.774.323 2.612.355c.484.71 1.097 1.451 1.678 2.097c-.032.193-.162.29-.29.387m.967-.903c-.42-.452-.774-.904-1.161-1.388c.355 0 .71.033 1.129.033s.806 0 1.161-.033c-.354.42-.71.871-1.129 1.387m5.097 1.128c-.032.452-.258.936-.645 1.226c-.645.355-1.936-.096-3.355-1.354c-.129-.13-.322-.259-.484-.452a17 17 0 0 0 1.613-2.097c.903-.032 1.774-.226 2.613-.42c.032.13.032.323.097.452c.226.904.226 1.807.161 2.645m.71-4.16c-.097.032-.226.032-.355.096c-.258-.871-.645-1.677-1-2.484c.355-.774.677-1.613.935-2.451c.226.032.42.129.581.193c1.806.645 3.064 1.548 3.064 2.258c.033.742-1.29 1.742-3.225 2.387M12 13.844c1 0 1.774-.806 1.774-1.774A1.79 1.79 0 0 0 12 10.297c-.935 0-1.774.806-1.774 1.774S11 13.845 12 13.845"/></svg>
